<svg xmlns="http://www.w3.org/2000/svg" viewBox="0 0 512 512" x="0px" y="0px"><title>Cat icon</title><desc>Cat icon for website, application, printing, document, poster design, etc.</desc><metadata><?xpacket begin="&#65279;" id="W5M0MpCehiHzreSzNTczkc9d"?><x:xmpmeta xmlns:x="adobe:ns:meta/" x:xmptk="Adobe XMP Core 5.6-c145 79.162955, 2018/05/10-01:07:16        "></x:xmpmeta><?xpacket end="w"?></metadata><g><path d="M378.725,112l19.221-44.85L351.434,38.08a39.968,39.968,0,0,0-21.2-6.08H253.766a39.968,39.968,0,0,0-21.2,6.08L186.054,67.15,205.275,112H216V80a7.994,7.994,0,0,1,.845-3.578l16-32,14.31,7.156L232,81.889V160H352V81.889L336.845,51.578l14.31-7.156,16,32A7.994,7.994,0,0,1,368,80v32ZM248,64h16V80H248Zm80,80H312a31.933,31.933,0,0,1-24-10.856A31.933,31.933,0,0,1,264,144H248V128h16a16,16,0,0,0,13.886-8.083A15.51,15.51,0,0,1,264,104.512V95.488A15.506,15.506,0,0,1,279.488,80h17.024A15.506,15.506,0,0,1,312,95.488v9.024a15.51,15.51,0,0,1-13.886,15.405A16,16,0,0,0,312,128h16Zm0-64H312V64h16Zm-96,96H352v16H232Zm237.589,67.586a8,8,0,0,0,.466,7.694c8.389,13.292,10.828,26.667,8.7,47.7-1.094,10.747-5.275,23.695-8.947,33.456a198.307,198.307,0,0,0-32.147-42.093l-.949-.948c9.493-42.006,3.5-85.236-16.205-118.563l6.567-1.983a19.533,19.533,0,0,1,17.431,3.13,22.715,22.715,0,0,1,9.029,18.5,8,8,0,0,0,3.031,6.27l3.233,2.562C472.758,209.576,476.878,228.2,469.589,243.586ZM280,96h16v8H280ZM48,315.552a128.161,128.161,0,0,0-16,22.667V294.534a39.876,39.876,0,0,1,6.718-22.189L54.61,248.508A55.73,55.73,0,0,0,64,217.5v-.506a58.186,58.186,0,0,0-23.135-46.343C37.347,168.01,32,165.377,32,160.344v-.3c0-7.5,9.99-10.6,15.385-6.289l4.957,3.966A73.333,73.333,0,0,1,80,215.265a73.466,73.466,0,0,1-12.377,40.879L54.718,275.5A39.873,39.873,0,0,0,48,297.689ZM128,464H104a8,8,0,0,1-8-8V433.941a73.455,73.455,0,0,0-21.657-52.284l11.314-11.314A89.352,89.352,0,0,1,112,433.941V448h16a31.94,31.94,0,0,1,8,1.013V360h16v98.868A31.86,31.86,0,0,1,160,480h16V360h16V472a32.058,32.058,0,0,1,24-30.988v-277.7a34.944,34.944,0,0,0-16.845,16.267A8,8,0,0,1,192,184H152a8,8,0,0,1-7.155-4.422A35.206,35.206,0,0,0,128,163.311V254.87a39.943,39.943,0,0,1-17.809,33.284L81.878,307.036A111.894,111.894,0,0,0,32,400.22V480H144A16.019,16.019,0,0,0,128,464Zm56-264h16v16H184Zm-40,0h16v16H144ZM426.343,301.657A182,182,0,0,1,480,431.2V480H328v-8a16.019,16.019,0,0,1,16-16h24a8,8,0,0,0,8-8V405.255a100.588,100.588,0,0,1,29.657-71.6l-11.314-11.314A116.491,116.491,0,0,0,360,405.255V440H344a31.793,31.793,0,0,0-16,4.305V296H312V480H256v-8a16.019,16.019,0,0,1,16-16,8,8,0,0,0,8-8V296H264V441.012A32.057,32.057,0,0,0,240,472v8H208v-8a16.019,16.019,0,0,1,16-16,8,8,0,0,0,8-8V208H352.5a65.428,65.428,0,0,0,18.817,38.627Z"  fill="#943570"></path></g></svg>